<?xml version="1.0" encoding="iso-8859-1"?>
<!-- Generator: Adobe Illustrator 19.0.0, SVG Export Plug-In . SVG Version: 6.00 Build 0)  -->
<svg xmlns="http://www.w3.org/2000/svg" xmlns:xlink="http://www.w3.org/1999/xlink" version="1.1" id="Capa_1" x="0px" y="0px" viewBox="0 0 460 460" style="enable-background:new 0 0 460 460;" xml:space="preserve" width="512" height="512">
<g id="XMLID_1320_">
	<path id="XMLID_1269_" style="fill:#E0CDA4;" d="M378.547,330.843l-53.241,100.053C315.774,448.81,297.166,460,276.91,460H183.09   c-20.257,0-38.864-11.19-48.396-29.104L81.453,330.843c-7.081-13.307-8.397-28.946-3.638-43.254v0   C85.281,265.141,106.241,250,129.849,250h60.241v-60h79.819v60h60.241c23.609,0,44.569,15.141,52.035,37.589v0   C386.944,301.897,385.628,317.536,378.547,330.843z"/>
	<path id="XMLID_1318_" style="fill:#DCE0DA;" d="M378.547,330.843l-53.241,100.053C315.774,448.81,297.166,460,276.91,460H183.09   c-20.257,0-38.864-11.19-48.397-29.104L81.453,330.843c-7.081-13.307-8.397-28.946-3.638-43.254v0   C85.281,265.141,106.241,250,129.849,250h59.617c12.152,6.387,25.95,10,40.534,10l0,0c14.584,0,28.382-3.613,40.534-10h59.617   c23.609,0,44.569,15.141,52.034,37.589v0C386.944,301.897,385.628,317.536,378.547,330.843z"/>
	<path id="XMLID_1317_" style="fill:#C18F2B;" d="M378.547,330.843l-53.241,100.053C315.774,448.81,297.166,460,276.91,460H183.09   c-20.257,0-38.864-11.19-48.397-29.104L81.453,330.843c-7.081-13.307-8.397-28.946-3.638-43.254v0   C85.281,265.141,106.241,250,129.849,250h27.458l66.35,54.765c3.684,3.041,9.001,3.041,12.685,0L302.693,250h27.458   c23.609,0,44.569,15.141,52.034,37.589v0C386.944,301.897,385.628,317.536,378.547,330.843z"/>
	<path id="XMLID_1314_" style="fill:#64757C;" d="M378.547,330.843l-53.241,100.053C315.774,448.81,297.166,460,276.91,460H183.09   c-20.257,0-38.864-11.19-48.397-29.104L81.453,330.843c-7.081-13.307-8.397-28.946-3.638-43.254v0   C85.281,265.141,106.241,250,129.849,250h15.343v0.562c0,5.976,2.667,11.639,7.269,15.439l64.853,53.529   c7.368,6.082,18.002,6.082,25.371,0L307.539,266c4.603-3.799,7.269-9.462,7.269-15.439V250h15.343   c23.609,0,44.569,15.141,52.034,37.589v0C386.944,301.897,385.628,317.536,378.547,330.843z"/>
	<path id="XMLID_2150_" style="fill:#374145;" d="M130.226,325.227V422.5l-16.468-30.947l6.059-66.8   c0.244-2.692,2.496-4.754,5.194-4.754C127.891,320,130.226,322.34,130.226,325.227z M329.774,422.5l16.468-30.947l-6.059-66.8   c-0.244-2.692-2.496-4.754-5.194-4.754c-2.88,0-5.215,2.34-5.215,5.227V422.5z"/>
	<path id="XMLID_1301_" style="fill:#C18F2B;" d="M306.43,320c1.872,0,3.389,1.521,3.389,3.397v13.032   c0,10.431-7.126,19.171-16.758,21.661c-9.632-2.49-16.758-11.229-16.758-21.661v-13.032c0-1.876,1.518-3.397,3.389-3.397H306.43z"/>
	<path id="XMLID_1300_" style="fill:#D5B138;" d="M309.819,323.397v13.032c0,10.431-7.126,19.171-16.758,21.661   c-4.088-1.057-7.716-3.248-10.548-6.208c11.595-6.819,20.124-18.301,23.021-31.882h0.896   C308.302,320,309.819,321.521,309.819,323.397z"/>
	<path id="XMLID_1294_" style="fill:#EFDDB9;" d="M230,220L230,220c-45.206,0-82.953-34.549-87.046-79.671l-6.793-74.896   C132.974,30.295,160.577,0,195.779,0h68.441c35.202,0,62.806,30.295,59.619,65.432l-6.793,74.896   C312.953,185.451,275.206,220,230,220z"/>
	<path id="XMLID_1273_" style="fill:#FFFFFF;" d="M254.444,180c-2.311,11.411-12.376,20-24.444,20s-22.132-8.589-24.444-20H254.444z   "/>
	<path id="XMLID_1275_" style="fill:#635547;" d="M215.034,105c0,2.761-2.233,5-4.989,5H190.09c-2.755,0-4.989-2.239-4.989-5   s2.234-5,4.989-5h19.955C212.8,100,215.034,102.239,215.034,105z M269.91,100h-19.955c-2.755,0-4.989,2.239-4.989,5   s2.234,5,4.989,5h19.955c2.755,0,4.989-2.239,4.989-5S272.665,100,269.91,100z"/>
	<path id="XMLID_1274_" style="fill:#635547;" d="M323.839,65.432L318.89,120l0,0c-3.461,0-19.048-15.833-19.048-56.885V60H230   c-36.392,0-67.94,22.396-80.997,54.668c-1.304,3.222-4.423,5.332-7.893,5.332l0,0l-4.95-54.568C132.974,30.295,160.577,0,195.779,0   h68.441C299.423,0,327.026,30.295,323.839,65.432z"/>
</g>















</svg>
